<?xml version="1.0" encoding="UTF-8" standalone="no"?>
<svg width="60px" height="52px" viewBox="0 0 60 52" version="1.1" xmlns="http://www.w3.org/2000/svg" xmlns:xlink="http://www.w3.org/1999/xlink" xmlns:sketch="http://www.bohemiancoding.com/sketch/ns">
    <!-- Generator: Sketch 3.3.3 (12081) - http://www.bohemiancoding.com/sketch -->
    <title>75 - Safebox (Outline)</title>
    <desc>Created with Sketch.</desc>
    <defs></defs>
    <g id="Page-1" stroke="none" stroke-width="1" fill="none" fill-rule="evenodd" sketch:type="MSPage">
        <g id="Guardadito-Notificación-0" sketch:type="MSArtboardGroup" transform="translate(-150.000000, -222.000000)" stroke-linecap="round" stroke="#210049" stroke-width="2">
            <g id="75---Safebox-(Outline)" sketch:type="MSLayerGroup" transform="translate(151.000000, 223.000000)">
                <path d="M2,46 L10,46 L10,50 L2,50 L2,46 Z" id="Stroke-186" sketch:type="MSShapeGroup"></path>
                <path d="M48,46 L56,46 L56,50 L48,50 L48,46 Z" id="Stroke-188" sketch:type="MSShapeGroup"></path>
                <path d="M0,0 L58,0 L58,46 L0,46 L0,0 Z" id="Stroke-278" sketch:type="MSShapeGroup"></path>
                <path d="M52,9 L55,9" id="Stroke-280" sketch:type="MSShapeGroup"></path>
                <path d="M52,12 L55,12" id="Stroke-282" sketch:type="MSShapeGroup"></path>
                <path d="M52,34 L55,34" id="Stroke-284" sketch:type="MSShapeGroup"></path>
                <path d="M52,37 L55,37" id="Stroke-286" sketch:type="MSShapeGroup"></path>
                <path d="M52.992,42 L5.008,42 C4.451,42 4,41.548 4,40.992 L4,5.008 C4,4.451 4.451,4 5.008,4 L52.992,4 C53.549,4 54,4.451 54,5.008 L54,40.992 C54,41.548 53.549,42 52.992,42 L52.992,42 Z" id="Stroke-288" sketch:type="MSShapeGroup"></path>
                <path d="M47,23 C47,29.075 42.075,34 36,34 C29.925,34 25,29.075 25,23 C25,16.925 29.925,12 36,12 C42.075,12 47,16.925 47,23 L47,23 Z" id="Stroke-296" sketch:type="MSShapeGroup"></path>
                <path d="M36,12 L36,14" id="Stroke-298" sketch:type="MSShapeGroup"></path>
                <path d="M36,32 L36,34" id="Stroke-300" sketch:type="MSShapeGroup"></path>
                <path d="M47,23 L45,23" id="Stroke-302" sketch:type="MSShapeGroup"></path>
                <path d="M27,23 L25,23" id="Stroke-304" sketch:type="MSShapeGroup"></path>
                <path d="M43.778,15.222 L42.364,16.636" id="Stroke-306" sketch:type="MSShapeGroup"></path>
                <path d="M29.636,29.364 L28.222,30.778" id="Stroke-308" sketch:type="MSShapeGroup"></path>
                <path d="M43.778,30.778 L42.364,29.364" id="Stroke-310" sketch:type="MSShapeGroup"></path>
                <path d="M29.636,16.636 L28.222,15.222" id="Stroke-312" sketch:type="MSShapeGroup"></path>
                <path d="M39,23 C39,24.657 37.657,26 36,26 C34.343,26 33,24.657 33,23 C33,21.343 34.343,20 36,20 C37.657,20 39,21.343 39,23 L39,23 Z" id="Stroke-314" sketch:type="MSShapeGroup"></path>
                <path d="M15,14 L15,34" id="Stroke-483" sketch:type="MSShapeGroup"></path>
                <path d="M10,34 L10,14" id="Stroke-485" sketch:type="MSShapeGroup"></path>
                <path d="M10,16 L11,16" id="Stroke-487" sketch:type="MSShapeGroup"></path>
                <path d="M15,16 L14,16" id="Stroke-489" sketch:type="MSShapeGroup"></path>
                <path d="M10,32 L11,32" id="Stroke-491" sketch:type="MSShapeGroup"></path>
                <path d="M15,32 L14,32" id="Stroke-493" sketch:type="MSShapeGroup"></path>
            </g>
        </g>
    </g>
</svg>
