<?xml version="1.0" encoding="UTF-8" standalone="no"?>
<svg width="60px" height="43px" viewBox="0 0 60 43" version="1.1" xmlns="http://www.w3.org/2000/svg" xmlns:xlink="http://www.w3.org/1999/xlink" xmlns:sketch="http://www.bohemiancoding.com/sketch/ns">
    <!-- Generator: Sketch 3.3.3 (12081) - http://www.bohemiancoding.com/sketch -->
    <title>10 - Mail (Outline)</title>
    <desc>Created with Sketch.</desc>
    <defs></defs>
    <g id="Page-1" stroke="none" stroke-width="1" fill="none" fill-rule="evenodd" sketch:type="MSPage">
        <g id="Cambio-de-clave-Mail-Enviado" sketch:type="MSArtboardGroup" transform="translate(-150.000000, -204.000000)" stroke="#210049" stroke-width="2" stroke-linecap="round" stroke-linejoin="round">
            <g id="10---Mail-(Outline)" sketch:type="MSLayerGroup" transform="translate(151.000000, 205.000000)">
                <path d="M0,0.001 L27.138,27.268 C28.187,28.244 29.813,28.244 30.862,27.268 L58,0 L0,0.001 Z" id="Path" sketch:type="MSShapeGroup"></path>
                <path d="M0,41 L58,41 L58,0 L0,0 L0,41 Z" id="Path" sketch:type="MSShapeGroup"></path>
                <path d="M0,39.709 L0,1.291 C0,0.762 0.606,0.462 1.027,0.783 L21,21 L1.027,40.218 C0.606,40.538 0,40.238 0,39.709 L0,39.709 Z" id="Path" sketch:type="MSShapeGroup"></path>
                <path d="M58,39.709 L58,1.291 C58,0.762 57.394,0.462 56.973,0.783 L37,21 L56.973,40.218 C57.394,40.538 58,40.238 58,39.709 L58,39.709 Z" id="Path" sketch:type="MSShapeGroup"></path>
            </g>
        </g>
    </g>
</svg>
