<?xml version="1.0" encoding="UTF-8" standalone="no"?>
<svg width="123px" height="60px" viewBox="0 0 123 60" version="1.1" xmlns="http://www.w3.org/2000/svg" xmlns:xlink="http://www.w3.org/1999/xlink" xmlns:sketch="http://www.bohemiancoding.com/sketch/ns">
    <!-- Generator: Sketch 3.3.2 (12043) - http://www.bohemiancoding.com/sketch -->
    <title>124 - Store (Outline) + 15 - Phone Transfer In (Outline) Copy</title>
    <desc>Created with Sketch.</desc>
    <defs></defs>
    <g id="Page-1" stroke="none" stroke-width="1" fill="none" fill-rule="evenodd" sketch:type="MSPage">
        <g id="Cash-IN" sketch:type="MSArtboardGroup" transform="translate(-118.500000, -449.000000)">
            <g id="124---Store-(Outline)-+-15---Phone-Transfer-In-(Outline)-Copy" sketch:type="MSLayerGroup" transform="translate(120.000000, 450.000000)">
                <g id="124---Store-(Outline)" sketch:type="MSShapeGroup">
                    <path d="M39.0416739,44 L54.0416739,44" id="Path" stroke="#FFFFFF" stroke-width="2" stroke-linecap="round"></path>
                    <path d="M14.0416739,36 L18.0416739,32" id="Path" stroke="#FFFFFF" stroke-width="2" stroke-linecap="round"></path>
                    <path d="M14.0416739,41 L16.0416739,39" id="Path" stroke="#FFFFFF" stroke-width="2" stroke-linecap="round"></path>
                    <path d="M20.0416739,35 L23.0416739,32" id="Path" stroke="#FFFFFF" stroke-width="2" stroke-linecap="round"></path>
                    <path d="M14.0416739,46 L23.0416739,37" id="Path" stroke="#FFFFFF" stroke-width="2" stroke-linecap="round"></path>
                    <path d="M6.04167392,54 L7.04167392,54" id="Path" stroke="#FFFFFF" stroke-width="2" stroke-linecap="round"></path>
                    <path d="M2.04167392,54 L3.04167392,54" id="Path" stroke="#FFFFFF" stroke-width="2" stroke-linecap="round"></path>
                    <path d="M9.04167392,57 L10.0416739,57" id="Path" stroke="#FFFFFF" stroke-width="2" stroke-linecap="round"></path>
                    <path d="M1.04167392,57 L2.04167392,57" id="Path" stroke="#FFFFFF" stroke-width="2" stroke-linecap="round"></path>
                    <path d="M5.04167392,57 L6.04167392,57" id="Path" stroke="#FFFFFF" stroke-width="2" stroke-linecap="round"></path>
                    <path d="M14.0416739,54 L15.0416739,54" id="Path" stroke="#FFFFFF" stroke-width="2" stroke-linecap="round"></path>
                    <path d="M10.0416739,54 L11.0416739,54" id="Path" stroke="#FFFFFF" stroke-width="2" stroke-linecap="round"></path>
                    <path d="M13.0416739,57 L14.0416739,57" id="Path" stroke="#FFFFFF" stroke-width="2" stroke-linecap="round"></path>
                    <path d="M22.0416739,54 L23.0416739,54" id="Path" stroke="#FFFFFF" stroke-width="2" stroke-linecap="round"></path>
                    <path d="M18.0416739,54 L19.0416739,54" id="Path" stroke="#FFFFFF" stroke-width="2" stroke-linecap="round"></path>
                    <path d="M25.0416739,57 L26.0416739,57" id="Path" stroke="#FFFFFF" stroke-width="2" stroke-linecap="round"></path>
                    <path d="M17.0416739,57 L18.0416739,57" id="Path" stroke="#FFFFFF" stroke-width="2" stroke-linecap="round"></path>
                    <path d="M21.0416739,57 L22.0416739,57" id="Path" stroke="#FFFFFF" stroke-width="2" stroke-linecap="round"></path>
                    <path d="M30.0416739,54 L31.0416739,54" id="Path" stroke="#FFFFFF" stroke-width="2" stroke-linecap="round"></path>
                    <path d="M26.0416739,54 L27.0416739,54" id="Path" stroke="#FFFFFF" stroke-width="2" stroke-linecap="round"></path>
                    <path d="M29.0416739,57 L30.0416739,57" id="Path" stroke="#FFFFFF" stroke-width="2" stroke-linecap="round"></path>
                    <path d="M34.0416739,54 L35.0416739,54" id="Path" stroke="#FFFFFF" stroke-width="2" stroke-linecap="round"></path>
                    <path d="M33.0416739,57 L34.0416739,57" id="Path" stroke="#FFFFFF" stroke-width="2" stroke-linecap="round"></path>
                    <path d="M38.0416739,54 L39.0416739,54" id="Path" stroke="#FFFFFF" stroke-width="2" stroke-linecap="round"></path>
                    <path d="M37.0416739,57 L38.0416739,57" id="Path" stroke="#FFFFFF" stroke-width="2" stroke-linecap="round"></path>
                    <path d="M19.0416739,37 C19.0416739,37.552 18.5936739,38 18.0416739,38 C17.4896739,38 17.0416739,37.552 17.0416739,37 C17.0416739,36.448 17.4896739,36 18.0416739,36 C18.5936739,36 19.0416739,36.448 19.0416739,37 L19.0416739,37 Z" id="Fill-3" fill="#FFFFFF"></path>
                    <path d="M26.0416739,35 C26.0416739,35.552 25.5936739,36 25.0416739,36 C24.4896739,36 24.0416739,35.552 24.0416739,35 C24.0416739,34.448 24.4896739,34 25.0416739,34 C25.5936739,34 26.0416739,34.448 26.0416739,35 L26.0416739,35 Z" id="Fill-5" fill="#FFFFFF"></path>
                    <path d="M29.0416739,11 L15.0416739,11 C16.1996739,4.63 21.7476739,0 28.2216739,0 L29.0416739,0 L29.0416739,11 L29.0416739,11 Z" id="Path" stroke="#FFFFFF" stroke-width="2"></path>
                    <path d="M43.0416739,11 L29.0416739,11 L29.0416739,0 L29.8616739,0 C36.3356739,0 41.8836739,4.63 43.0416739,11 L43.0416739,11 Z" id="Path" stroke="#FFFFFF" stroke-width="2"></path>
                    <path d="M8.04167392,20 L7.04167392,20 C3.17567392,20 0.0416739178,16.866 0.0416739178,13 L0.0416739178,11.16 C0.0416739178,11.072 0.113673918,11 0.201673918,11 L15.0416739,11 L15.0416739,13 C15.0416739,16.866 11.9076739,20 8.04167392,20 L8.04167392,20 Z" id="Path" stroke="#FFFFFF" stroke-width="2"></path>
                    <path d="M22.0416739,20 L22.0416739,20 C18.1756739,20 15.0416739,16.866 15.0416739,13 L15.0416739,11 L29.0416739,11 L29.0416739,13 C29.0416739,16.866 25.9076739,20 22.0416739,20 L22.0416739,20 Z" id="Path" stroke="#FFFFFF" stroke-width="2"></path>
                    <path d="M36.0416739,20 L36.0416739,20 C32.1756739,20 29.0416739,16.866 29.0416739,13 L29.0416739,11 L43.0416739,11 L43.0416739,13 C43.0416739,16.866 39.9076739,20 36.0416739,20 L36.0416739,20 Z" id="Path" stroke="#FFFFFF" stroke-width="2"></path>
                    <path d="M51.0416739,20 L50.0416739,20 C46.1756739,20 43.0416739,16.866 43.0416739,13 L43.0416739,11 L57.8816739,11 C57.9696739,11 58.0416739,11.072 58.0416739,11.16 L58.0416739,13 C58.0416739,16.866 54.9076739,20 51.0416739,20 L51.0416739,20 Z" id="Path" stroke="#FFFFFF" stroke-width="2"></path>
                    <path d="M54.0416739,58 L39.0416739,58 L39.0416739,32.5 C39.0416739,28.358 42.3996739,25 46.5416739,25 C50.6836739,25 54.0416739,28.358 54.0416739,32.5 L54.0416739,58 L54.0416739,58 Z" id="Path" stroke="#FFFFFF" stroke-width="2"></path>
                    <path d="M4.04167392,25 L35.0416739,25 L35.0416739,51 L4.04167392,51 L4.04167392,25 Z" id="Path" stroke="#FFFFFF" stroke-width="2"></path>
                    <path d="M57.9446739,10.659 L57.9386739,10.636 C56.3186739,4.689 51.1166739,0.473 45.0416739,0.043 L45.0416739,0 L14.0416739,0 L14.0416739,0.001 C7.54367392,0.012 1.85367392,4.365 0.145673918,10.637 C0.0936739178,10.819 0.230673918,11 0.419673918,11 L57.6866739,11 C57.8646739,11 57.9926739,10.83 57.9446739,10.659 L57.9446739,10.659 Z" id="Path" stroke="#FFFFFF" stroke-width="2"></path>
                    <path d="M57.8816739,11 C57.9706739,11 58.0416739,11.071 58.0416739,11.16 L58.0416739,11 L57.8816739,11 L57.8816739,11 Z" id="Path" stroke="#FFFFFF" stroke-width="2"></path>
                    <path d="M0.201673918,11 L0.0416739178,11 L0.0416739178,11.16 C0.0416739178,11.071 0.113673918,11 0.201673918,11 L0.201673918,11 Z" id="Path" stroke="#FFFFFF" stroke-width="2"></path>
                    <path d="M51.0416739,20 L50.0416739,20 C46.1756739,20 43.0416739,16.866 43.0416739,13 C43.0416739,16.866 39.9076739,20 36.0416739,20 C32.1756739,20 29.0416739,16.866 29.0416739,13 C29.0416739,16.866 25.9076739,20 22.0416739,20 C18.1756739,20 15.0416739,16.866 15.0416739,13 C15.0416739,16.866 11.9076739,20 8.04167392,20 L7.04167392,20 C3.17567392,20 0.0416739178,16.866 0.0416739178,13 L0.0416739178,58 L58.0416739,58 L58.0416739,13 C58.0416739,16.866 54.9076739,20 51.0416739,20 L51.0416739,20 Z" id="Path" stroke="#FFFFFF" stroke-width="2"></path>
                </g>
                <g id="15---Phone-Transfer-In-(Outline)-Copy" transform="translate(93.500000, 29.000000) scale(-1, 1) translate(-93.500000, -29.000000) translate(67.000000, 0.000000)" stroke="#FFFFFF" stroke-width="2" sketch:type="MSShapeGroup" stroke-linecap="round" stroke-linejoin="round">
                    <path d="M32,30.995 L32,54.595 C32,56.475 30.475,58 28.595,58 L3.405,58 C1.525,58 0,56.475 0,54.595 L0,3.405 C0,1.525 1.525,0 3.405,0 L28.595,0 C30.475,0 32,1.525 32,3.405 L32,20.997 L32,30.995 Z" id="Path"></path>
                    <path d="M19,52 C19,53.657 17.657,55 16,55 C14.343,55 13,53.657 13,52 C13,50.343 14.343,49 16,49 C17.657,49 19,50.343 19,52 L19,52 Z" id="Path"></path>
                    <path d="M0,46 L32,46 L0,46 Z" id="Path"></path>
                    <path d="M0,6 L32,6 L0,6 Z" id="Path"></path>
                    <path d="M12,3 L16,3 L12,3 Z" id="Path"></path>
                    <path d="M19,3 L20,3 L19,3 Z" id="Path"></path>
                    <path d="M53,26 L15,26 L53,26 Z" id="Path"></path>
                    <path d="M27,38 L15,26 L27,38 Z" id="Path"></path>
                    <path d="M27,14 L15,26 L27,14 Z" id="Path"></path>
                </g>
            </g>
        </g>
    </g>
</svg>