<?xml version="1.0" encoding="UTF-8" standalone="no"?>
<svg width="17px" height="17px" viewBox="0 0 17 17" version="1.1" xmlns="http://www.w3.org/2000/svg" xmlns:xlink="http://www.w3.org/1999/xlink" xmlns:sketch="http://www.bohemiancoding.com/sketch/ns">
    <!-- Generator: Sketch 3.3.2 (12043) - http://www.bohemiancoding.com/sketch -->
    <title>Fill 1131 Copy</title>
    <desc>Created with Sketch.</desc>
    <defs></defs>
    <g id="Page-1" stroke="none" stroke-width="1" fill="none" fill-rule="evenodd" sketch:type="MSPage">
        <g id="Group" sketch:type="MSLayerGroup" transform="translate(-270.000000, -9.000000)" fill="#210049">
            <path d="M278.638459,9.29274145 C274.192058,9.29274145 270.587031,12.8977686 270.587031,17.3441701 C270.587031,21.7905716 274.192058,25.3955988 278.638459,25.3955988 C283.084861,25.3955988 286.689888,21.7905716 286.689888,17.3441701 C286.689888,12.8977686 283.084861,9.29274145 278.638459,9.29274145 L278.638459,9.29274145 Z M283.549076,15.036681 L276.817075,21.7686818 L272.895023,17.847636 C272.501509,17.4541224 272.501509,16.8170531 272.895023,16.424546 C273.288537,16.0310324 273.925606,16.0310324 274.318113,16.424546 L276.817075,18.9225017 L282.125986,13.613591 C282.5195,13.2200774 283.155562,13.2200774 283.549076,13.613591 C283.94259,14.0060981 283.94259,14.6431674 283.549076,15.036681 L283.549076,15.036681 Z" id="Fill-1131-Copy" sketch:type="MSShapeGroup"></path>
        </g>
    </g>
</svg>