<?xml version="1.0" encoding="UTF-8" standalone="no"?>
<svg width="111px" height="29px" viewBox="0 0 111 29" version="1.1" xmlns="http://www.w3.org/2000/svg" xmlns:xlink="http://www.w3.org/1999/xlink" xmlns:sketch="http://www.bohemiancoding.com/sketch/ns">
    <!-- Generator: Sketch 3.3.3 (12081) - http://www.bohemiancoding.com/sketch -->
    <title>Path Copy 3 + Path Copy + Path Copy 2 Copy + Pedir</title>
    <desc>Created with Sketch.</desc>
    <defs></defs>
    <g id="Page-1" stroke="none" stroke-width="1" fill="none" fill-rule="evenodd" sketch:type="MSPage">
        <g id="00-transfer_Pre-peticion_Agenda" sketch:type="MSArtboardGroup" transform="translate(-191.500000, -295.000000)">
            <g id="Group-Copy" sketch:type="MSLayerGroup">
                <g id="Path-Copy-3-+-Path-Copy-+-Path-Copy-2-Copy-+-Pedir" transform="translate(191.000000, 296.000000)" sketch:type="MSShapeGroup">
                    <g id="Path-Copy-3-+-Path-Copy-+-Path-Copy-2-Copy" transform="translate(86.000000, 0.000000)" stroke="#FFFFFF" stroke-width="1.3" stroke-linecap="round" stroke-linejoin="round">
                        <g id="Path-Copy-3-+-Path-Copy" transform="translate(16.500000, 13.500000) rotate(-180.000000) translate(-16.500000, -13.500000) translate(8.000000, 7.000000)">
                            <path d="M10.627451,12.5121951 L16.5185185,6.65853659" id="Path-Copy-3"></path>
                            <path d="M10.627451,0.804878049 L16.5185185,6.65853659 L0.318082789,6.65853659" id="Path-Copy"></path>
                        </g>
                        <path d="M17.1728395,10.7317073 L17.1728395,0.487804878 L0.0739745983,0.487804552 L0.0739745983,26.829268 L17.1728395,26.8292683 L17.1728395,16.5853659" id="Path-Copy-2"></path>
                    </g>
                    <path d="M0.732,21 L2.514,21 L2.514,15.402 L4.53,15.402 C7.176,15.402 9.174,14.358 9.174,11.802 C9.174,9.318 7.374,8.256 4.62,8.256 L0.732,8.256 L0.732,21 Z M2.514,9.768 L4.44,9.768 C6.114,9.768 7.374,10.272 7.374,11.802 C7.374,13.314 6.15,13.89 4.404,13.89 L2.514,13.89 L2.514,9.768 Z M12.522,15.978 C12.63,14.646 13.746,13.566 15.204,13.566 C16.77,13.566 17.562,14.628 17.598,15.978 L12.522,15.978 Z M19.308,16.662 C19.308,13.944 17.724,12.234 15.204,12.234 C12.702,12.234 10.794,14.088 10.794,16.752 C10.794,19.434 12.702,21.234 15.294,21.234 C16.806,21.234 18.048,20.676 18.966,19.488 L17.778,18.534 C17.292,19.254 16.446,19.83 15.294,19.83 C13.8,19.83 12.576,18.696 12.522,17.238 L19.29,17.238 C19.308,17.04 19.308,16.842 19.308,16.662 L19.308,16.662 Z M28.47,19.65 L28.506,19.65 L28.506,21 L30.144,21 L30.144,7.392 L28.452,7.392 L28.452,13.746 L28.416,13.746 C27.822,12.918 26.76,12.234 25.374,12.234 C22.818,12.234 21.09,14.196 21.09,16.716 C21.09,19.218 22.764,21.234 25.392,21.234 C26.598,21.234 27.822,20.676 28.47,19.65 L28.47,19.65 Z M22.854,16.716 C22.854,15.114 23.826,13.638 25.68,13.638 C27.408,13.638 28.56,15.096 28.56,16.734 C28.56,18.372 27.408,19.812 25.68,19.812 C23.826,19.812 22.854,18.318 22.854,16.716 L22.854,16.716 Z M34.806,12.468 L33.114,12.468 L33.114,21 L34.806,21 L34.806,12.468 Z M35.094,9.39 C35.094,8.76 34.572,8.292 33.96,8.292 C33.348,8.292 32.844,8.778 32.844,9.39 C32.844,9.984 33.348,10.47 33.96,10.47 C34.572,10.47 35.094,10.002 35.094,9.39 L35.094,9.39 Z M37.758,14.304 L37.758,21 L39.45,21 L39.45,16.518 C39.45,15.096 40.224,13.782 41.844,13.782 C42.114,13.782 42.402,13.818 42.618,13.872 L42.69,12.306 C42.492,12.252 42.258,12.234 42.024,12.234 C40.872,12.234 39.882,12.918 39.414,13.908 L39.36,13.908 C39.36,13.548 39.324,12.9 39.288,12.468 L37.686,12.468 C37.74,13.026 37.758,13.854 37.758,14.304 L37.758,14.304 Z" id="Pedir" fill="#FFFFFF"></path>
                </g>
            </g>
        </g>
    </g>
</svg>