<?xml version="1.0" encoding="UTF-8" standalone="no"?>
<svg width="48px" height="48px" viewBox="0 0 48 48" version="1.1" xmlns="http://www.w3.org/2000/svg" xmlns:xlink="http://www.w3.org/1999/xlink" xmlns:sketch="http://www.bohemiancoding.com/sketch/ns">
    <!-- Generator: Sketch 3.3.3 (12081) - http://www.bohemiancoding.com/sketch -->
    <title>65 - Full Wallet (Outline)</title>
    <desc>Created with Sketch.</desc>
    <defs></defs>
    <g id="Page-1" stroke="none" stroke-width="1" fill="none" fill-rule="evenodd" sketch:type="MSPage">
        <g id="Seleccion-Bolsillo-00" sketch:type="MSArtboardGroup" transform="translate(-156.000000, -273.000000)" stroke="#210049" stroke-width="1.6">
            <g id="65---Full-Wallet-(Outline)" sketch:type="MSLayerGroup" transform="translate(157.000000, 274.000000)">
                <path d="M19.2572542,4.75862069 L5.57627119,4.75862069 C2.49657627,4.75862069 0,7.2442069 0,10.3103448 C0,13.3764828 2.49657627,15.862069 5.57627119,15.862069 L8.94672881,15.862069 L8.52532203,15.4433103 L19.2572542,4.75862069 L19.2572542,4.75862069 Z" id="Path" sketch:type="MSShapeGroup"></path>
                <path d="M0,10.3103448 L0,41.1208276 C0,43.8157931 2.19386441,46 4.90074576,46 L46.2033898,46 L46.2033898,15.862069 L5.57627119,15.862069 C2.49657627,15.862069 0,13.3764828 0,10.3103448 L0,10.3103448 Z" id="Path" sketch:type="MSShapeGroup"></path>
                <path d="M46.2033898,19.0344828 L5.57627119,19.0344828 C2.49657627,19.0344828 0,16.5488966 0,13.4827586" id="Path" stroke-linecap="round" stroke-dasharray="2,4" sketch:type="MSShapeGroup"></path>
                <path d="M46.2033898,42.8275862 L5.57627119,42.8275862 C2.49657627,42.8275862 0,40.342 0,37.2758621" id="Path" stroke-linecap="round" stroke-dasharray="2,4" sketch:type="MSShapeGroup"></path>
                <path d="M39.8305085,30.137931 C39.8305085,31.4521034 38.760661,32.5172414 37.440678,32.5172414 C36.1206949,32.5172414 35.0508475,31.4521034 35.0508475,30.137931 C35.0508475,28.8237586 36.1206949,27.7586207 37.440678,27.7586207 C38.760661,27.7586207 39.8305085,28.8237586 39.8305085,30.137931 L39.8305085,30.137931 Z" id="Path" sketch:type="MSShapeGroup"></path>
                <path d="M43.3929492,15.862069 L43.8135593,15.4433103 L28.5186441,0.215724138 C28.4756271,0.172896552 28.4055254,0.172896552 28.3625085,0.215724138 L13.0675932,15.4433103 L13.489,15.862069 L43.3929492,15.862069 L43.3929492,15.862069 Z" id="Path" sketch:type="MSShapeGroup"></path>
                <path d="M13.489,15.862069 L13.0675932,15.4433103 L26.1694407,2.39913793 L23.9763729,0.215724138 C23.9333559,0.172896552 23.8632542,0.172896552 23.8202373,0.215724138 L8.52532203,15.4433103 L8.94672881,15.862069 L13.489,15.862069 L13.489,15.862069 Z" id="Path" sketch:type="MSShapeGroup"></path>
                <path d="M36.6440678,7.93103448 L46.2033898,7.93103448" id="Stroke-4" stroke-linecap="round" stroke-dasharray="2,4" sketch:type="MSShapeGroup"></path>
                <path d="M37.1945254,15.862069 L37.440678,15.617 L28.4859831,6.70172414 C28.4612881,6.67713793 28.4198644,6.67713793 28.3951695,6.70172414 L19.4404746,15.617 L19.6874237,15.862069 L37.1945254,15.862069 L37.1945254,15.862069 Z" id="Stroke-5" sketch:type="MSShapeGroup"></path>
                <path d="M46.2033898,34.8965517 L36.6440678,34.8965517 C34.0041017,34.8965517 31.8644068,32.7662759 31.8644068,30.137931 C31.8644068,27.5095862 34.0041017,25.3793103 36.6440678,25.3793103 L46.2033898,25.3793103 L46.2033898,34.8965517 L46.2033898,34.8965517 Z" id="Path" sketch:type="MSShapeGroup"></path>
                <path d="M0,13.4827586 L0,13.4827586 C0,10.4166207 2.49657627,7.93103448 5.57627119,7.93103448 L15.9322034,7.93103448" id="Path" stroke-linecap="round" stroke-dasharray="2,4" sketch:type="MSShapeGroup"></path>
                <path d="M33.0816271,4.75862069 L43.8135593,15.4433103 L43.3929492,15.862069 L46.2033898,15.862069 L46.2033898,4.75862069 L33.0816271,4.75862069 L33.0816271,4.75862069 Z" id="Path" sketch:type="MSShapeGroup"></path>
            </g>
        </g>
    </g>
</svg>