<?xml version="1.0" encoding="UTF-8" standalone="no"?>
<svg width="81px" height="79px" viewBox="0 0 81 79" version="1.1" xmlns="http://www.w3.org/2000/svg" xmlns:xlink="http://www.w3.org/1999/xlink" xmlns:sketch="http://www.bohemiancoding.com/sketch/ns">
    <!-- Generator: Sketch 3.3.3 (12081) - http://www.bohemiancoding.com/sketch -->
    <title>QR Hello Copy</title>
    <desc>Created with Sketch.</desc>
    <defs></defs>
    <g id="Page-1" stroke="none" stroke-width="1" fill="none" fill-rule="evenodd" sketch:type="MSPage">
        <g id="Mochila-vinculado-Copy-9" sketch:type="MSArtboardGroup" transform="translate(-139.000000, -162.180000)" fill="#FFFFFF">
            <g id="QR-Hello-Copy" sketch:type="MSLayerGroup" transform="translate(179.620899, 202.425320) rotate(-315.000000) translate(-179.620899, -202.425320) translate(150.901668, 173.925320)">
                <path d="M0.438461538,19.0180095 L0.438461538,0.297156398 L19.2484615,0.297156398 L19.2484615,19.0180095 L0.438461538,19.0180095 L0.438461538,19.0180095 Z M16.5613187,16.3706161 L16.5613187,3.02559242 L3.15274725,3.02559242 L3.15274725,16.3706161 L16.5613187,16.3706161 L16.5613187,16.3706161 Z" id="Shape" sketch:type="MSShapeGroup"></path>
                <path d="M57.3027473,0.324170616 L57.3027473,19.0450237 L38.4927473,19.0450237 L38.4927473,0.324170616 L57.3027473,0.324170616 L57.3027473,0.324170616 Z M41.1527473,2.97156398 L41.1527473,16.3706161 L54.5884615,16.3706161 L54.5884615,2.97156398 L41.1527473,2.97156398 L41.1527473,2.97156398 Z" id="Shape" sketch:type="MSShapeGroup"></path>
                <path d="M0.465604396,38.0900474 L19.2756044,38.0900474 L19.2756044,56.8109005 L0.465604396,56.8109005 C0.465604396,50.6516588 0.465604396,44.4113744 0.465604396,38.0900474 L0.465604396,38.0900474 Z M16.6156044,40.8184834 L3.20703297,40.8184834 L3.20703297,54.1635071 L16.6156044,54.1635071 L16.6156044,40.8184834 L16.6156044,40.8184834 Z" id="Shape" sketch:type="MSShapeGroup"></path>
                <path d="M16.697033,24.5559242 L16.697033,21.8004739 L22.0713187,21.8004739 L22.017033,21.7734597 C22.0441758,22.6109005 22.0984615,23.4753555 22.1256044,24.4748815 L24.7584615,24.4748815 L24.7584615,27.1763033 L27.4998901,27.1763033 L27.4998901,21.9625592 L35.6698901,21.9625592 L35.6698901,24.5829384 L35.697033,24.52891 L32.9556044,24.52891 L32.9556044,29.9587678 L32.9827473,29.9317536 L27.4998901,29.9317536 L27.4998901,32.6331754 L24.8127473,32.6331754 L24.8398901,32.6601896 L24.8398901,29.9317536 L22.0984615,29.9317536 L22.1256044,29.9587678 L22.1256044,27.2303318 L19.3841758,27.2303318 L19.4113187,27.257346 L19.4113187,24.52891 L16.6698901,24.52891 L16.697033,24.5559242 L16.697033,24.5559242 Z" id="Shape" sketch:type="MSShapeGroup"></path>
                <path d="M32.8741758,8.4014218 L35.5341758,8.4014218 L35.5341758,13.6691943 L30.2956044,13.6691943 L30.2956044,19.0450237 L27.5541758,19.0450237 L27.5541758,16.5327014 L24.8127473,16.5327014 L24.8127473,21.7734597 L21.9898901,21.7734597 L22.0441758,21.8004739 L22.0441758,11.0218009 L32.9013187,11.0218009 L32.9013187,8.34739336 C32.9284615,8.34739336 32.8741758,8.4014218 32.8741758,8.4014218 L32.8741758,8.4014218 Z" id="Shape" sketch:type="MSShapeGroup"></path>
                <path d="M35.6427473,38.0090047 L35.6427473,40.6834123 L30.2956044,40.6834123 L30.2956044,43.3037915 L24.7856044,43.3037915 L24.7856044,40.7104265 L27.4456044,40.7104265 L27.4456044,38.1170616 L24.8398901,38.1170616 L24.8398901,40.7374408 L22.1256044,40.7374408 L22.1256044,32.6061611 L22.0713187,32.6331754 L24.8127473,32.6331754 L24.7856044,32.6061611 L24.7856044,35.3075829 L30.2413187,35.3075829 L30.2413187,38.036019 L35.6698901,38.036019 L35.6427473,38.0090047 L35.6427473,38.0090047 Z" id="Shape" sketch:type="MSShapeGroup"></path>
                <path d="M51.9556044,27.257346 L51.9556044,24.5829384 L49.2956044,24.5829384 L49.2956044,21.9625592 L54.5884615,21.9625592 L54.5884615,24.52891 L57.2756044,24.52891 L57.2756044,32.5251185 L51.9284615,32.5251185 L51.9284615,29.9047393 L51.9013187,29.9587678 L54.5613187,29.9587678 L54.5613187,27.2303318 L51.9013187,27.2303318 L51.9556044,27.257346 L51.9556044,27.257346 Z" id="Shape" sketch:type="MSShapeGroup"></path>
                <path d="M35.6698901,54.2175355 L30.2956044,54.2175355 L30.2956044,56.8379147 L27.5541758,56.8379147 L27.5541758,51.5161137 L27.4998901,51.543128 L30.2413187,51.543128 L30.2413187,48.8146919 L30.2141758,48.8687204 L32.8741758,48.8687204 L32.8741758,51.5971564 L35.7513187,51.5971564 L35.697033,51.5701422 C35.6698901,52.4616114 35.6698901,53.3800948 35.6427473,54.271564 L35.6698901,54.2175355 L35.6698901,54.2175355 Z" id="Shape" sketch:type="MSShapeGroup"></path>
                <path d="M5.73131868,32.6601896 L3.15274725,32.6601896 L3.15274725,35.2535545 L0.465604396,35.2535545 L0.465604396,30.0398104 L8.4456044,30.0398104 L8.4456044,35.2265403 L5.89417582,35.2265403 C5.83989011,34.3620853 5.7856044,33.4976303 5.73131868,32.6601896 L5.73131868,32.6601896 Z" id="Shape" sketch:type="MSShapeGroup"></path>
                <path d="M5.70417582,27.1492891 L0.438461538,27.1492891 L0.438461538,21.935545 L5.70417582,21.935545 L5.70417582,27.1492891 L5.70417582,27.1492891 Z" id="Shape" sketch:type="MSShapeGroup"></path>
                <path d="M32.9284615,5.59194313 C32.9284615,6.51042654 32.9013187,7.45592417 32.9013187,8.37440758 L32.9284615,8.32037915 L27.6084615,8.32037915 L27.6084615,0.243127962 L30.187033,0.243127962 L30.187033,5.59194313 L32.9827473,5.59194313 L32.9284615,5.59194313 L32.9284615,5.59194313 Z" id="Shape" sketch:type="MSShapeGroup"></path>
                <path d="M24.7313187,51.4890995 L24.7313187,56.8379147 L22.1798901,56.8379147 L22.1798901,51.5161137 L24.7856044,51.5161137 C24.7856044,51.5161137 24.7313187,51.4890995 24.7313187,51.4890995 L24.7313187,51.4890995 Z" id="Shape" sketch:type="MSShapeGroup"></path>
                <path d="M32.9556044,5.64597156 L32.9556044,0.324170616 L35.5613187,0.324170616 L35.5613187,5.59194313 L32.9284615,5.59194313 C32.9284615,5.59194313 32.9556044,5.64597156 32.9556044,5.64597156 L32.9556044,5.64597156 Z" id="Shape" sketch:type="MSShapeGroup"></path>
                <path d="M22.1527473,8.21232227 L22.1527473,2.9985782 L24.7313187,2.9985782 L24.7313187,8.21232227 L22.1527473,8.21232227 L22.1527473,8.21232227 Z" id="Shape" sketch:type="MSShapeGroup"></path>
                <path d="M11.2141758,24.5559242 L16.6698901,24.5559242 L16.6156044,24.52891 L16.6156044,27.257346 L16.6427473,27.2033175 L11.2141758,27.2033175 L11.2141758,24.5018957 L11.2141758,24.5559242 L11.2141758,24.5559242 Z" id="Shape" sketch:type="MSShapeGroup"></path>
                <path d="M24.867033,48.7606635 L22.207033,48.7606635 L22.207033,46.221327 L24.8398901,46.221327 L24.8398901,48.8146919 C24.8127473,48.8146919 24.867033,48.7606635 24.867033,48.7606635 L24.867033,48.7606635 Z" id="Shape" sketch:type="MSShapeGroup"></path>
                <path d="M27.5541758,48.8687204 L27.5541758,46.2483412 L30.2141758,46.2483412 L30.2141758,48.8687204 L30.2413187,48.8146919 L27.4998901,48.8146919 L27.5541758,48.8687204 L27.5541758,48.8687204 Z" id="Shape" sketch:type="MSShapeGroup"></path>
                <path d="M27.5541758,51.5161137 C26.6041758,51.5161137 25.6813187,51.4890995 24.7313187,51.4890995 L24.7856044,51.5161137 C24.8127473,50.5976303 24.8398901,49.6791469 24.867033,48.7606635 L24.8398901,48.8146919 C25.7356044,48.8417062 26.6584615,48.8417062 27.5541758,48.8687204 L27.4998901,48.8417062 L27.4998901,51.5701422 C27.4998901,51.5701422 27.5541758,51.5161137 27.5541758,51.5161137 L27.5541758,51.5161137 Z" id="Shape" sketch:type="MSShapeGroup"></path>
                <path d="M54.5341758,56.8919431 L52.037033,56.8919431 L52.037033,54.3255924 L54.5341758,54.3255924 L54.5341758,56.8919431 L54.5341758,56.8919431 Z" id="Shape" sketch:type="MSShapeGroup"></path>
                <path d="M35.6427473,54.2445498 L38.2756044,54.2445498 L38.2756044,56.8379147 L35.6698901,56.8379147 L35.6698901,54.2175355 C35.6698901,54.2175355 35.6427473,54.2445498 35.6427473,54.2445498 L35.6427473,54.2445498 Z" id="Shape" sketch:type="MSShapeGroup"></path>
                <path d="M43.7041758,56.9189573 L41.207033,56.9189573 L41.207033,54.3526066 L43.7041758,54.3526066 L43.7041758,56.9189573 L43.7041758,56.9189573 Z" id="Shape" sketch:type="MSShapeGroup"></path>
                <path d="M46.6356044,54.271564 L49.1327473,54.271564 L49.1327473,56.8379147 L46.6356044,56.8379147 L46.6356044,54.271564 L46.6356044,54.271564 Z" id="Shape" sketch:type="MSShapeGroup"></path>
                <path d="M19.3027473,32.5791469 L19.3027473,35.2265403 L16.7513187,35.2265403 L16.7513187,32.6061611 L19.357033,32.6061611 C19.357033,32.6061611 19.3027473,32.5791469 19.3027473,32.5791469 L19.3027473,32.5791469 Z" id="Shape" sketch:type="MSShapeGroup"></path>
                <path d="M22.1256044,32.6061611 C21.1756044,32.6061611 20.2527473,32.5791469 19.3027473,32.5791469 L19.357033,32.6061611 C19.3841758,31.7146919 19.3841758,30.7962085 19.4113187,29.9047393 L19.357033,29.9317536 L22.0984615,29.9317536 L22.0713187,29.9047393 L22.0713187,32.6331754 L22.1256044,32.6061611 L22.1256044,32.6061611 Z" id="Shape" sketch:type="MSShapeGroup"></path>
                <path d="M19.4113187,29.9047393 L16.697033,29.9047393 L16.697033,27.2033175 L16.6698901,27.257346 L19.4113187,27.257346 L19.3841758,27.2303318 L19.3841758,29.9587678 L19.4113187,29.9047393 L19.4113187,29.9047393 Z" id="Shape" sketch:type="MSShapeGroup"></path>
                <path d="M11.2684615,24.5018957 L8.6356044,24.5018957 L8.6356044,21.9085308 L11.2413187,21.9085308 L11.2413187,24.52891 C11.2141758,24.5559242 11.2684615,24.5018957 11.2684615,24.5018957 L11.2684615,24.5018957 Z" id="Shape" sketch:type="MSShapeGroup"></path>
                <path d="M35.5341758,19.0990521 L33.037033,19.0990521 L33.037033,16.5327014 L35.5341758,16.5327014 L35.5341758,19.0990521 L35.5341758,19.0990521 Z" id="Shape" sketch:type="MSShapeGroup"></path>
                <g id="Group" transform="translate(32.738462, 21.881517)" sketch:type="MSShapeGroup">
                    <path id="Shape" d="M0.19,8.16270496 L0.302467989,8.16270496 L0.302467989,8.05023697 L0.19,8.16270496 L0.19,8.16270496 Z"></path>
                    <path id="Shape" d="M2.90428571,2.73284714 L3.0167537,2.73284714 L3.0167537,2.62037915 L2.90428571,2.73284714 L2.90428571,2.73284714 Z"></path>
                    <path d="M21.85,24.2317536 L21.85,16.1274882 L19.1628571,16.1274882 L19.1628571,13.5611374 L16.4485714,13.5611374 L16.4485714,16.1815166 L11.0471429,16.1815166 L11.0471429,18.82891 L8.44142857,18.82891 L8.44142857,10.6976303 L16.5028571,10.6976303 L16.5028571,8.02322275 L19.1628571,8.02322275 L19.1628571,5.37582938 C17.3714286,5.34881517 15.58,5.34881517 13.7614286,5.32180095 L13.7614286,0.027014218 L5.56428571,0.027014218 L5.56428571,2.67440758 L2.90428571,2.67440758 L2.90428571,5.29478673 L5.51,5.29478673 L5.51,8.07725118 L0.19,8.07725118 C0.19,8.96872038 0.162857143,9.88720379 0.162857143,10.778673 L5.51,10.778673 L5.51,13.4260664 L2.90428571,13.4260664 L2.90428571,16.1545024 L5.51,16.1545024 L5.51,21.6383886 L0.271428571,21.6383886 L0.271428571,24.3668246 L2.95857143,24.3668246 L2.95857143,29.7156398 L8.36,29.7156398 L8.36,27.0682464 L11.1014286,27.0682464 L11.1014286,29.6075829 L13.7885714,29.6075829 L13.7885714,27.0682464 L16.53,27.0682464 L16.53,29.5805687 L19.2442857,29.5805687 L19.2442857,27.0412322 L21.9314286,27.0412322 L21.9314286,29.5805687 L24.5371429,29.5805687 L24.5371429,24.2587678 C23.6685714,24.2317536 22.8271429,24.2317536 21.85,24.2317536 L21.85,24.2317536 Z M8.44142857,5.34881517 L13.7614286,5.34881517 L13.7614286,7.94218009 L8.44142857,7.94218009 L8.44142857,5.34881517 L8.44142857,5.34881517 Z M19.1085714,24.1777251 L8.41428571,24.1777251 L8.41428571,21.6113744 L11.0742857,21.6113744 L11.0742857,18.8559242 L11.0471429,18.8559242 L11.0742857,18.82891 L11.0742857,18.8559242 L19.1085714,18.8559242 C19.1085714,20.6388626 19.1085714,22.3677725 19.1085714,24.1777251 L19.1085714,24.1777251 Z" id="Shape"></path>
                    <path id="Shape" d="M3.0167537,16.2399561 L3.0167537,16.1274882 L2.90428571,16.1274882 L3.0167537,16.2399561 L3.0167537,16.2399561 Z"></path>
                    <path id="Shape" d="M3.07103942,29.8010936 L3.07103942,29.6886256 L2.95857143,29.6886256 C2.95857143,29.6886256 3.07103942,29.8010936 3.07103942,29.8010936 L3.07103942,29.8010936 Z"></path>
                    <path id="Shape" d="M19.19,5.32180095 L19.19,5.43426894 L19.302468,5.43426894 L19.19,5.32180095 L19.19,5.32180095 Z"></path>
                    <path id="Shape" d="M19.302468,8.02322275 L19.19,8.02322275 L19.19,8.13569074 L19.302468,8.02322275 L19.302468,8.02322275 Z"></path>
                </g>
                <path d="M30.2141758,35.3345972 L30.2141758,32.6061611 L32.9556044,32.6061611 L32.9556044,35.3345972 L30.2141758,35.3345972 L30.2141758,35.3345972 Z" id="Shape" sketch:type="MSShapeGroup"></path>
                <path d="M13.8741758,5.72701422 L13.8741758,13.6421801 L5.92131868,13.6421801 L5.92131868,5.72701422 L13.8741758,5.72701422 L13.8741758,5.72701422 Z" id="Shape" sketch:type="MSShapeGroup"></path>
                <path d="M51.847033,13.6962085 L43.9213187,13.6962085 L43.9213187,5.72701422 L51.847033,5.72701422 L51.847033,13.6962085 L51.847033,13.6962085 Z" id="Shape" sketch:type="MSShapeGroup"></path>
                <path d="M13.8198901,51.4890995 L5.89417582,51.4890995 L5.89417582,43.5199052 L13.8198901,43.5199052 L13.8198901,51.4890995 L13.8198901,51.4890995 Z" id="Shape" sketch:type="MSShapeGroup"></path>
            </g>
        </g>
    </g>
</svg>