<?xml version="1.0" encoding="utf-8"?>
<!-- Generator: Adobe Illustrator 19.1.0, SVG Export Plug-In . SVG Version: 6.00 Build 0)  -->
<svg version="1.1" id="Capa_1" xmlns:sketch="http://www.bohemiancoding.com/sketch/ns"
	 xmlns="http://www.w3.org/2000/svg" xmlns:xlink="http://www.w3.org/1999/xlink" x="0px" y="0px" width="51.7px" height="62.4px"
	 viewBox="-371.2 275.8 51.7 62.4" style="enable-background:new -371.2 275.8 51.7 62.4;" xml:space="preserve">
<style type="text/css">
	.st0{fill:none;stroke:#210049;stroke-width:1.86;stroke-linecap:round;}
	.st1{fill:none;stroke:#210049;stroke-width:1.86;}
	.st2{fill:#FFFFFF;stroke:#210049;stroke-width:2;}
	.st3{fill:#FFFFFF;stroke:#210049;stroke-width:2;stroke-linecap:round;stroke-linejoin:round;stroke-dasharray:5,5;}
</style>
<title>156 - Money (Outline) Copy + Imported Layers Copy + Imported Layers Copy 2</title>
<desc>Created with Sketch.</desc>
<g id="Page-1" sketch:type="MSPage">
	<g id="Mochila-vinculado" transform="translate(-266.000000, -317.000000)" sketch:type="MSArtboardGroup">
		
			<g id="_x31_56---Money-_x28_Outline_x29_-Copy-_x2B_-Imported-Layers-Copy-_x2B_-Imported-Layers-Copy-2" transform="translate(267.000000, 317.000000)" sketch:type="MSLayerGroup">
			
				<g id="_x31_56---Money-_x28_Outline_x29_-Copy" transform="translate(26.000000, 25.000000) rotate(-270.000000) translate(-26.000000, -25.000000) translate(2.000000, 6.000000)" sketch:type="MSShapeGroup">
				<path id="Stroke-128" class="st0" d="M278.9,378.4h42.5V408h-42.5V378.4z"/>
				<path id="Stroke-130" class="st0" d="M319.5,378.4h-38.8v-3.7l39.7,3.7H319.5z"/>
				<path id="Stroke-132" class="st0" d="M316.7,393.2c0,6.6-5.4,12-12,12s-12-5.4-12-12c0-6.6,5.4-12,12-12
					S316.7,386.6,316.7,393.2L316.7,393.2z"/>
				<path id="Stroke-134" class="st0" d="M298.4,403.4c-3.4-2.1-5.6-5.9-5.6-10.2s2.3-8,5.6-10.2H289c0,0.2,0,0.3,0,0.5
					c0,2.8-2.3,5.1-5.1,5.1c-0.2,0-0.3,0-0.5,0v9.3c0.2,0,0.3,0,0.5,0c2.8,0,5.1,2.3,5.1,5.1c0,0.2,0,0.3,0,0.5H298.4L298.4,403.4z"
					/>
				<path id="Stroke-136" class="st0" d="M325.5,388.6c-2.8,0-5.1-2.3-5.1-5.1c0-0.2,0-0.3,0-0.5h-9.3c3.4,2.1,5.6,5.9,5.6,10.2
					s-2.3,8-5.6,10.2h9.3c0-0.2,0-0.3,0-0.5c0-2.8,2.3-5.1,5.1-5.1c0.2,0,0.3,0,0.5,0v-9.3C325.8,388.6,325.7,388.6,325.5,388.6
					L325.5,388.6z"/>
				<path id="Stroke-138" class="st1" d="M284,385.8c-1.3,0-2.3-1-2.3-2.3s1-2.3,2.3-2.3s2.3,1,2.3,2.3S285.3,385.8,284,385.8
					L284,385.8z"/>
				<path id="Stroke-142" class="st1" d="M284,405.2c-1.3,0-2.3-1-2.3-2.3c0-1.3,1-2.3,2.3-2.3s2.3,1,2.3,2.3
					C286.3,404.2,285.3,405.2,284,405.2L284,405.2z"/>
				<path id="Stroke-214" class="st0" d="M283.5,374.9l34.2,3.5h2.8l-36.9-7.4V374.9z"/>
				<path id="Stroke-216" class="st0" d="M309.9,396c0.7-0.2,1.1-0.8,1.1-1.5v-0.8c0-0.6-0.4-1.1-0.9-1.4c-0.4-3-2.4-4.3-5.6-4.3
					c-0.2,0-0.3,0-0.4,0c-1.1,0.1-2.2-0.1-3.1-0.7c-0.4-0.3-0.7-0.5-0.9-0.8c-0.1-0.1-0.3,0-0.3,0.1c0,0.3,0.1,0.6,0.2,1
					c0.3,1.3,0.1,1.1-0.4,2.4c-0.3,0.7-0.5,1.5-0.6,2.3c-0.5,0.3-0.9,0.8-0.9,1.4v0.8c0,0.7,0.5,1.3,1.1,1.5
					c0.4,1.6,1.3,2.9,2.9,3.6v0.9c0,0.2-0.1,0.5-0.3,0.6l-3.1,1.5c-0.3,0.1-0.5,0.3-0.7,0.6c1.9,1.3,4.2,2,6.7,2
					c2.4,0,4.6-0.7,6.5-1.9c-0.2-0.3-0.5-0.5-0.9-0.7l-3-1.6c-0.2-0.1-0.3-0.3-0.3-0.6v-0.9C308.6,398.9,309.5,397.6,309.9,396
					L309.9,396z"/>
			</g>
			<path id="Imported-Layers-Copy" sketch:type="MSShapeGroup" class="st2" d="M-369.9,294.8v25.1c0,0.2,0,0.3,0,0.5
				c-0.1,0.7-0.2,2.9,1.8,4.6c2.1,1.7,11.1,7.3,16.1,10.3c0.1,0,0.1,0.1,0.2,0.1c0.3,0.2,2.7,1.8,5.6,1.8c1.7,0,3.3-0.6,4.7-1.7
				c0.1-0.1,0.2-0.1,0.2-0.2l15.3-10.3c0.1,0,0.1-0.1,0.2-0.1c0.3-0.2,3.1-1.9,3.2-5.4l0-24.6c0-1.1-0.9-1.9-1.9-1.9H-368
				C-369.1,292.9-369.9,293.7-369.9,294.8z"/>
			<path id="Imported-Layers-Copy-2" sketch:type="MSShapeGroup" class="st3" d="M-364.3,297.9c-0.9,0-1.6,0.7-1.6,1.6v20.2
				c0,0.1,0,0.3,0,0.4c-0.1,0.5-0.2,2.3,1.5,3.7c1.7,1.4,9.2,5.9,13.3,8.3c0,0,0.1,0.1,0.1,0.1c0.2,0.1,2.2,1.4,4.7,1.4
				c1.4,0,2.8-0.5,3.9-1.4c0.1,0,0.1-0.1,0.2-0.1l12.7-8.3c0.1,0,0.1-0.1,0.1-0.1c0.3-0.2,2.6-1.6,2.7-4.4l0-19.8
				c0-0.9-0.7-1.6-1.6-1.6H-364.3L-364.3,297.9z"/>
		</g>
	</g>
</g>
</svg>
