<?xml version="1.0" encoding="UTF-8" standalone="no"?>
<svg width="109px" height="39px" viewBox="0 0 109 39" version="1.1" xmlns="http://www.w3.org/2000/svg" xmlns:xlink="http://www.w3.org/1999/xlink" xmlns:sketch="http://www.bohemiancoding.com/sketch/ns">
    <!-- Generator: Sketch 3.3.3 (12081) - http://www.bohemiancoding.com/sketch -->
    <title>Group + Sacar</title>
    <desc>Created with Sketch.</desc>
    <defs></defs>
    <g id="Page-1" stroke="none" stroke-width="1" fill="none" fill-rule="evenodd" sketch:type="MSPage">
        <g id="00-transfer_Pre-peticion_Agenda" sketch:type="MSArtboardGroup" transform="translate(-188.500000, -415.000000)">
            <g id="Group-Copy" sketch:type="MSLayerGroup">
                <g id="Group-+-Sacar" transform="translate(189.000000, 415.000000)">
                    <g id="Group" transform="translate(87.000000, 0.000000)">
                        <ellipse id="Oval-24" stroke="#FFFFFF" stroke-width="1.3" sketch:type="MSShapeGroup" cx="10.1625274" cy="26.5251505" rx="6.22502741" ry="6.21480569"></ellipse>
                        <text id="$" sketch:type="MSTextLayer" transform="translate(12.216346, 26.005305) rotate(-90.000000) translate(-12.216346, -26.005305) " font-family="Avenir Next LT Pro" font-size="8.45" font-weight="420" fill="#FFFFFF">
                            <tspan x="9.1875" y="26.9655172">$</tspan>
                        </text>
                        <path d="M14.1462759,7.65722701 L20.4255816,7.65722701 L20.4255816,37.7723348 L0.151188413,37.7723348 L0.151188413,7.53448276 L7.07935674,7.53448276" id="Path-5327" stroke="#FFFFFF" stroke-width="1.3" stroke-linecap="round" stroke-linejoin="round" sketch:type="MSShapeGroup"></path>
                        <g id="Path-Copy-2-+-Path-Copy" transform="translate(4.593750, 0.000000)" stroke="#FFFFFF" stroke-width="1.3" sketch:type="MSShapeGroup" stroke-linecap="round" stroke-linejoin="round">
                            <path d="M11.7924837,11.1878915 L5.84477124,17.0116463" id="Path-Copy-2"></path>
                            <path d="M5.15849673,5.89655172 L11.1062092,11.7203065 L-5.25,11.7203065" id="Path-Copy" transform="translate(2.928105, 8.808429) scale(1, -1) rotate(-90.000000) translate(-2.928105, -8.808429) "></path>
                        </g>
                    </g>
                    <path d="M8.563,14.39 C7.771,13.508 6.385,12.932 4.909,12.932 C2.803,12.932 0.535,14.03 0.535,16.568 C0.535,18.908 2.227,19.646 3.847,20.15 C5.467,20.654 6.871,21.068 6.871,22.616 C6.871,24.128 5.503,24.794 4.315,24.794 C3.145,24.794 2.065,24.182 1.471,23.3 L0.085,24.47 C1.057,25.694 2.677,26.324 4.279,26.324 C6.547,26.324 8.689,25.1 8.689,22.454 C8.689,19.916 6.655,19.268 4.945,18.728 C3.505,18.26 2.335,17.882 2.335,16.496 C2.335,15.056 3.667,14.426 4.819,14.426 C5.881,14.426 6.799,14.912 7.303,15.614 L8.563,14.39 Z M16.429,20.708 C13.549,20.708 10.489,21.014 10.489,23.588 C10.489,25.55 12.235,26.216 13.585,26.216 C14.863,26.216 15.835,25.694 16.447,24.776 L16.501,24.776 C16.501,25.172 16.555,25.622 16.645,26 L18.175,26 C18.085,25.586 18.049,24.884 18.049,24.308 L18.049,20.582 C18.049,18.692 16.933,17.234 14.485,17.234 C13.099,17.234 11.821,17.72 10.993,18.512 L11.893,19.592 C12.469,19.016 13.369,18.602 14.323,18.602 C15.583,18.602 16.429,19.214 16.429,20.474 L16.429,20.708 Z M16.429,21.932 L16.429,22.382 C16.429,23.822 15.547,24.884 13.963,24.884 C13.117,24.884 12.217,24.56 12.217,23.552 C12.217,22.112 14.341,21.932 16.015,21.932 L16.429,21.932 Z M28.075,18.638 C27.373,17.72 26.077,17.234 24.871,17.234 C22.261,17.234 20.317,19.052 20.317,21.734 C20.317,24.452 22.279,26.234 24.907,26.234 C26.275,26.234 27.373,25.73 28.093,24.902 L26.959,23.876 C26.509,24.452 25.771,24.812 24.907,24.812 C23.125,24.812 22.099,23.354 22.099,21.734 C22.099,20.096 23.125,18.656 24.889,18.656 C25.699,18.656 26.491,19.07 26.851,19.628 L28.075,18.638 Z M35.077,20.708 C32.197,20.708 29.137,21.014 29.137,23.588 C29.137,25.55 30.883,26.216 32.233,26.216 C33.511,26.216 34.483,25.694 35.095,24.776 L35.149,24.776 C35.149,25.172 35.203,25.622 35.293,26 L36.823,26 C36.733,25.586 36.697,24.884 36.697,24.308 L36.697,20.582 C36.697,18.692 35.581,17.234 33.133,17.234 C31.747,17.234 30.469,17.72 29.641,18.512 L30.541,19.592 C31.117,19.016 32.017,18.602 32.971,18.602 C34.231,18.602 35.077,19.214 35.077,20.474 L35.077,20.708 Z M35.077,21.932 L35.077,22.382 C35.077,23.822 34.195,24.884 32.611,24.884 C31.765,24.884 30.865,24.56 30.865,23.552 C30.865,22.112 32.989,21.932 34.663,21.932 L35.077,21.932 Z M39.523,19.304 L39.523,26 L41.215,26 L41.215,21.518 C41.215,20.096 41.989,18.782 43.609,18.782 C43.879,18.782 44.167,18.818 44.383,18.872 L44.455,17.306 C44.257,17.252 44.023,17.234 43.789,17.234 C42.637,17.234 41.647,17.918 41.179,18.908 L41.125,18.908 C41.125,18.548 41.089,17.9 41.053,17.468 L39.451,17.468 C39.505,18.026 39.523,18.854 39.523,19.304 L39.523,19.304 Z" id="Sacar" fill="#FFFFFF" sketch:type="MSShapeGroup"></path>
                </g>
            </g>
        </g>
    </g>
</svg>