<?xml version="1.0" encoding="UTF-8" standalone="no"?>
<svg width="46px" height="43px" viewBox="0 0 46 43" version="1.1" xmlns="http://www.w3.org/2000/svg" xmlns:xlink="http://www.w3.org/1999/xlink" xmlns:sketch="http://www.bohemiancoding.com/sketch/ns">
    <!-- Generator: Sketch 3.3.3 (12081) - http://www.bohemiancoding.com/sketch -->
    <title>Imported Layers + Imported Layers</title>
    <desc>Created with Sketch.</desc>
    <defs>
        <path id="path-1" d="M4.19484747,6.50081884 L4.19484747,24.9997398 C4.19484747,25.1173787 4.1874814,25.2350176 4.17111235,25.3518338 C4.10563616,25.8330838 4.01069568,27.5005945 5.55429687,28.7370368 C7.14454985,30.011321 13.9892671,34.1204556 17.7827939,36.347368 C17.8237165,36.3712248 17.8654576,36.396727 17.9071987,36.4238744 C18.1085379,36.556321 19.9606957,37.725306 22.1729725,37.7261287 C23.49641,37.7261287 24.706901,37.3065774 25.7700707,36.4798146 C25.8265439,36.4353915 25.8887463,36.3909684 25.9517671,36.3498359 L37.5647879,28.7378594 C37.6106213,28.7082441 37.6539993,28.6819193 37.6981957,28.6555945 C37.9420945,28.5165667 40.0676153,27.2241842 40.1699219,24.651759 L40.1691034,6.50081884 C40.1691034,5.71436585 39.5110677,5.07434448 38.7024368,5.07434448 L5.66069568,5.07434448 C4.85206473,5.07434448 4.19484747,5.71436585 4.19484747,6.50081884 Z"></path>
    </defs>
    <g id="Page-1" stroke="none" stroke-width="1" fill="none" fill-rule="evenodd" sketch:type="MSPage">
        <g id="Bolsillos-Index" sketch:type="MSArtboardGroup" transform="translate(-23.000000, -195.000000)">
            <g id="Group-Copy" sketch:type="MSLayerGroup" transform="translate(12.000000, 180.000000)">
                <g id="Imported-Layers-+-Imported-Layers">
                    <g>
                        <g transform="translate(12.000000, 15.000000)">
                            <path d="M2.52489368,0.96109662 C1.41888726,0.96109662 0.522291915,1.85808069 0.522291915,2.96887845 L0.522291915,25.7524641 C0.522291915,25.8980731 0.513288939,26.0453274 0.494464534,26.1901137 C0.415074653,26.7898253 0.30049132,28.8637248 2.15919668,30.4020795 C4.07437525,31.9873253 12.3170092,37.1000923 16.8856104,39.8707761 C16.9347175,39.9003915 16.9854616,39.9332975 17.0353872,39.9670261 C17.2784675,40.1307334 19.5079318,41.5860005 22.1719943,41.5860005 C23.7663395,41.5860005 25.2231848,41.0644406 26.5040627,40.0361287 C26.5728127,39.9810111 26.6464735,39.925071 26.7225895,39.8740667 L40.7083038,30.4037248 C40.7623217,30.3667056 40.8155211,30.3337996 40.8687205,30.3017163 C41.1617264,30.1281372 43.7218455,28.5198573 43.8446133,25.3189278 L43.8438619,2.95440018 C43.8438249,1.85352902 42.9389637,0.96109662 41.8411931,0.96109662 L2.52489368,0.96109662 Z" id="Imported-Layers" stroke="#210049" stroke-width="1.6" sketch:type="MSShapeGroup"></path>
                            <g id="Imported-Layers">
                                <use stroke="#210049" stroke-width="1.6" stroke-linecap="round" stroke-linejoin="round" stroke-dasharray="3,3" sketch:type="MSShapeGroup" xlink:href="#path-1"></use>
                                <use stroke="none" xlink:href="#path-1"></use>
                            </g>
                        </g>
                    </g>
                </g>
            </g>
        </g>
    </g>
</svg>