<?xml version="1.0" encoding="UTF-8" standalone="no"?>
<svg width="120px" height="29px" viewBox="0 0 120 29" version="1.1" xmlns="http://www.w3.org/2000/svg" xmlns:xlink="http://www.w3.org/1999/xlink" xmlns:sketch="http://www.bohemiancoding.com/sketch/ns">
    <!-- Generator: Sketch 3.3.3 (12081) - http://www.bohemiancoding.com/sketch -->
    <title>Path Copy 3 + Path Copy + Path Copy 2 Copy Copy + Enviar</title>
    <desc>Created with Sketch.</desc>
    <defs></defs>
    <g id="Page-1" stroke="none" stroke-width="1" fill="none" fill-rule="evenodd" sketch:type="MSPage">
        <g id="00-transfer_Pre-peticion_Agenda" sketch:type="MSArtboardGroup" transform="translate(-183.500000, -235.000000)">
            <g id="Group-Copy" sketch:type="MSLayerGroup">
                <g id="Path-Copy-3-+-Path-Copy-+-Path-Copy-2-Copy-Copy-+-Enviar" transform="translate(183.000000, 236.000000)" sketch:type="MSShapeGroup">
                    <g id="Path-Copy-3-+-Path-Copy-+-Path-Copy-2-Copy-Copy" transform="translate(94.000000, 0.000000)" stroke="#FFFFFF" stroke-width="1.3" stroke-linecap="round" stroke-linejoin="round">
                        <g id="Path-Copy-3-+-Path-Copy" transform="translate(9.000000, 7.000000)">
                            <path d="M10.627451,12.5121951 L16.5185185,6.65853659" id="Path-Copy-3"></path>
                            <path d="M10.627451,0.804878049 L16.5185185,6.65853659 L0.318082789,6.65853659" id="Path-Copy"></path>
                        </g>
                        <path d="M17.1728395,10.7317073 L17.1728395,0.487804878 L0.0739745983,0.487804552 L0.0739745983,26.829268 L17.1728395,26.8292683 L17.1728395,16.5853659" id="Path-Copy-2"></path>
                    </g>
                    <path d="M2.68,13.168 L8.692,13.168 L8.692,11.638 L2.68,11.638 L2.68,7.822 L9.07,7.822 L9.07,6.256 L0.898,6.256 L0.898,19 L9.34,19 L9.34,17.416 L2.68,17.416 L2.68,13.168 Z M11.554,10.468 C11.608,11.026 11.626,11.854 11.626,12.304 L11.626,19 L13.318,19 L13.318,14.464 C13.318,12.772 14.272,11.656 15.604,11.656 C17.17,11.656 17.548,12.88 17.548,14.266 L17.548,19 L19.24,19 L19.24,13.708 C19.24,11.8 18.25,10.234 16.054,10.234 C14.83,10.234 13.696,10.954 13.282,11.872 L13.228,11.872 C13.228,11.512 13.192,10.9 13.156,10.468 L11.554,10.468 Z M29.536,10.468 L27.736,10.468 L25.216,17.182 L25.18,17.182 L22.678,10.468 L20.806,10.468 L24.28,19 L26.116,19 L29.536,10.468 Z M32.884,10.468 L31.192,10.468 L31.192,19 L32.884,19 L32.884,10.468 Z M33.172,7.39 C33.172,6.76 32.65,6.292 32.038,6.292 C31.426,6.292 30.922,6.778 30.922,7.39 C30.922,7.984 31.426,8.47 32.038,8.47 C32.65,8.47 33.172,8.002 33.172,7.39 L33.172,7.39 Z M41.146,13.708 C38.266,13.708 35.206,14.014 35.206,16.588 C35.206,18.55 36.952,19.216 38.302,19.216 C39.58,19.216 40.552,18.694 41.164,17.776 L41.218,17.776 C41.218,18.172 41.272,18.622 41.362,19 L42.892,19 C42.802,18.586 42.766,17.884 42.766,17.308 L42.766,13.582 C42.766,11.692 41.65,10.234 39.202,10.234 C37.816,10.234 36.538,10.72 35.71,11.512 L36.61,12.592 C37.186,12.016 38.086,11.602 39.04,11.602 C40.3,11.602 41.146,12.214 41.146,13.474 L41.146,13.708 Z M41.146,14.932 L41.146,15.382 C41.146,16.822 40.264,17.884 38.68,17.884 C37.834,17.884 36.934,17.56 36.934,16.552 C36.934,15.112 39.058,14.932 40.732,14.932 L41.146,14.932 Z M45.592,12.304 L45.592,19 L47.284,19 L47.284,14.518 C47.284,13.096 48.058,11.782 49.678,11.782 C49.948,11.782 50.236,11.818 50.452,11.872 L50.524,10.306 C50.326,10.252 50.092,10.234 49.858,10.234 C48.706,10.234 47.716,10.918 47.248,11.908 L47.194,11.908 C47.194,11.548 47.158,10.9 47.122,10.468 L45.52,10.468 C45.574,11.026 45.592,11.854 45.592,12.304 L45.592,12.304 Z" id="Enviar" fill="#FFFFFF"></path>
                </g>
            </g>
        </g>
    </g>
</svg>