<?xml version="1.0" encoding="UTF-8" standalone="no"?>
<svg width="50px" height="60px" viewBox="0 0 50 60" version="1.1" xmlns="http://www.w3.org/2000/svg" xmlns:xlink="http://www.w3.org/1999/xlink" xmlns:sketch="http://www.bohemiancoding.com/sketch/ns">
    <!-- Generator: Sketch 3.3.3 (12081) - http://www.bohemiancoding.com/sketch -->
    <title>156 - Money (Outline) Copy 2 + Imported Layers Copy 3 + Imported Layers Copy 4</title>
    <desc>Created with Sketch.</desc>
    <defs></defs>
    <g id="Page-1" stroke="none" stroke-width="1" fill="none" fill-rule="evenodd" sketch:type="MSPage">
        <g id="Bolsillo-Nuevo-03" sketch:type="MSArtboardGroup" transform="translate(-154.000000, -235.000000)" stroke="#210049">
            <g id="156---Money-(Outline)-Copy-2-+-Imported-Layers-Copy-3-+-Imported-Layers-Copy-4" sketch:type="MSLayerGroup" transform="translate(155.000000, 235.000000)">
                <g id="156---Money-(Outline)-Copy-2" transform="translate(26.000000, 25.000000) rotate(-270.000000) translate(-26.000000, -25.000000) translate(2.000000, 6.000000)" stroke-width="1.86000001" sketch:type="MSShapeGroup">
                    <path d="M0.0384682318,8.4 L42.5000067,8.4 L42.5000067,38 L0.0384682318,38 L0.0384682318,8.4 Z" id="Stroke-128" stroke-linecap="round"></path>
                    <path d="M40.6538528,8.4 L1.88462208,8.4 L1.88462208,4.7 L41.5769298,8.4 L40.6538528,8.4 Z" id="Stroke-130" stroke-linecap="round"></path>
                    <path d="M37.8846221,23.2 C37.8846221,29.8415 32.5123144,35.225 25.8846221,35.225 C19.2569298,35.225 13.8846221,29.8415 13.8846221,23.2 C13.8846221,16.5585 19.2569298,11.175 25.8846221,11.175 C32.5123144,11.175 37.8846221,16.5585 37.8846221,23.2 L37.8846221,23.2 Z" id="Stroke-132" stroke-linecap="round"></path>
                    <path d="M19.5098528,33.375 C16.1350836,31.246575 13.8846221,27.491075 13.8846221,23.2 C13.8846221,18.908925 16.1350836,15.153425 19.5098528,13.025 L10.1692375,13.025 C10.1830836,13.177625 10.1923144,13.331175 10.1923144,13.4875 C10.1923144,16.29765 7.91877592,18.575 5.11539131,18.575 C4.95939131,18.575 4.80616054,18.56575 4.65385285,18.551875 L4.65385285,27.848125 C4.80616054,27.83425 4.95939131,27.825 5.11539131,27.825 C7.91877592,27.825 10.1923144,30.10235 10.1923144,32.9125 C10.1923144,33.068825 10.1830836,33.222375 10.1692375,33.375 L19.5098528,33.375 L19.5098528,33.375 Z" id="Stroke-134" stroke-linecap="round"></path>
                    <path d="M46.6538528,18.575 C43.8504682,18.575 41.5769298,16.29765 41.5769298,13.4875 C41.5769298,13.331175 41.5861605,13.177625 41.6000067,13.025 L32.2593913,13.025 C35.6341605,15.153425 37.8846221,18.908925 37.8846221,23.2 C37.8846221,27.491075 35.6341605,31.246575 32.2593913,33.375 L41.6000067,33.375 C41.5861605,33.222375 41.5769298,33.068825 41.5769298,32.9125 C41.5769298,30.10235 43.8504682,27.825 46.6538528,27.825 C46.8098528,27.825 46.9630836,27.83425 47.1153913,27.848125 L47.1153913,18.551875 C46.9630836,18.56575 46.8098528,18.575 46.6538528,18.575 L46.6538528,18.575 Z" id="Stroke-136" stroke-linecap="round"></path>
                    <path d="M5.11539131,15.8 C3.84246823,15.8 2.807699,14.763075 2.807699,13.4875 C2.807699,12.211925 3.84246823,11.175 5.11539131,11.175 C6.38831439,11.175 7.42308362,12.211925 7.42308362,13.4875 C7.42308362,14.763075 6.38831439,15.8 5.11539131,15.8 L5.11539131,15.8 Z" id="Stroke-138"></path>
                    <path d="M5.11539131,35.225 C3.84246823,35.225 2.807699,34.188075 2.807699,32.9125 C2.807699,31.636925 3.84246823,30.6 5.11539131,30.6 C6.38831439,30.6 7.42308362,31.636925 7.42308362,32.9125 C7.42308362,34.188075 6.38831439,35.225 5.11539131,35.225 L5.11539131,35.225 Z" id="Stroke-142"></path>
                    <path d="M4.65385285,4.922 L38.807699,8.4 L41.5769298,8.4 L4.65385285,1 L4.65385285,4.922 Z" id="Stroke-214" stroke-linecap="round"></path>
                    <path d="M31.0243144,25.998125 C31.679699,25.794625 32.1615452,25.187825 32.1615452,24.466325 L32.1615452,23.661575 C32.1615452,23.0446 31.8070836,22.5118 31.295699,22.2417 C30.9412375,19.21325 28.943699,17.987625 25.7323144,17.987625 C25.5809298,17.987625 25.4313913,17.993175 25.2855452,18.0052 C24.1935452,18.09215 23.0904682,17.8868 22.1821605,17.273525 C21.8046221,17.018225 21.4870836,16.748125 21.263699,16.463225 C21.1612375,16.333725 20.9581605,16.41605 20.9766221,16.5807 C21.0089298,16.8619 21.0569298,17.190275 21.1280067,17.5501 C21.3929298,18.886725 21.2350836,18.69155 20.7190836,19.95325 C20.4338528,20.6507 20.2492375,21.424925 20.1643144,22.244475 C19.655699,22.516425 19.3040067,23.04645 19.3040067,23.661575 L19.3040067,24.466325 C19.3040067,25.187825 19.7858528,25.794625 20.4412375,25.998125 C20.8750836,27.627975 21.767699,28.9313 23.3221605,29.601925 L23.3221605,30.52415 C23.3221605,30.760025 23.1883144,30.974625 22.9769298,31.07915 L19.8744682,32.61095 C19.6058528,32.7571 19.3843144,32.957825 19.1867759,33.1789 C21.1003144,34.4702 23.4043144,35.225 25.8846221,35.225 C28.2726221,35.225 30.4926221,34.517375 32.3618528,33.3121 C32.1320067,33.03275 31.8430836,32.798725 31.5080067,32.6313 L28.4803144,31.081 C28.2735452,30.97555 28.1433913,30.7628 28.1433913,30.530625 L28.1433913,29.601925 C29.6969298,28.9313 30.5904682,27.627975 31.0243144,25.998125 L31.0243144,25.998125 Z" id="Stroke-216" stroke-linecap="round"></path>
                </g>
                <path d="M0.0697729982,16.3716667 L0.0697729982,41.4810256 C0.0697729982,41.6398718 0.0599515696,41.8005128 0.0394158553,41.9584615 C-0.0471912875,42.6126923 -0.172191288,44.8751282 1.85548728,46.5533333 C3.944773,48.2826923 12.9367373,53.8602564 17.9206659,56.8828205 C17.9742373,56.9151282 18.0295944,56.9510256 18.0840587,56.9878205 C18.3492373,57.1664103 20.7813801,58.7539744 23.6876301,58.7539744 C25.4269159,58.7539744 27.0162016,58.185 28.413523,57.0632051 C28.488523,57.0030769 28.5688801,56.9420513 28.6519159,56.8864103 L43.9090587,46.5551282 C43.9679873,46.5147436 44.026023,46.4788462 44.0840587,46.4438462 C44.4037016,46.2544872 47.1965587,44.5 47.3304873,41.0080769 L47.3295944,16.3716667 C47.3295944,15.3037179 46.4653087,14.4358974 45.4028087,14.4358974 L1.99566586,14.4358974 C0.934058712,14.4358974 0.0697729982,15.3037179 0.0697729982,16.3716667 Z" id="Imported-Layers-Copy-3" stroke-width="2" fill="#FFFFFF" sketch:type="MSShapeGroup"></path>
                <path d="M5.65744724,19.4358974 C4.77530438,19.4358974 4.0583401,20.1341026 4.0583401,20.9920513 L4.0583401,41.1726923 C4.0583401,41.3010256 4.05030438,41.429359 4.03244724,41.5567949 C3.96101867,42.0817949 3.85744724,43.9008974 5.54137581,45.2497436 C7.27619724,46.6398718 14.7431615,51.1225641 18.8815544,53.5519231 C18.9261972,53.5779487 18.971733,53.6057692 19.0172687,53.6353846 C19.2369115,53.7798718 21.2574472,55.0551282 23.6708401,55.0560256 C25.1145901,55.0560256 26.4351258,54.5983333 27.5949472,53.6964103 C27.6565544,53.6479487 27.7244115,53.5994872 27.7931615,53.5546154 L40.4619115,45.250641 C40.5119115,45.2183333 40.559233,45.1896154 40.6074472,45.1608974 C40.8735187,45.0092308 43.1922687,43.599359 43.3038758,40.7930769 L43.302983,20.9920513 C43.302983,20.1341026 42.5851258,19.4358974 41.702983,19.4358974 L5.65744724,19.4358974 L5.65744724,19.4358974 Z" id="Imported-Layers-Copy-4" stroke-width="2" stroke-linecap="round" stroke-linejoin="round" stroke-dasharray="5,5" fill="#FFFFFF" sketch:type="MSShapeGroup"></path>
            </g>
        </g>
    </g>
</svg>