<?xml version="1.0" encoding="UTF-8" standalone="no"?>
<svg width="28px" height="28px" viewBox="0 0 28 28" version="1.1" xmlns="http://www.w3.org/2000/svg" xmlns:xlink="http://www.w3.org/1999/xlink" xmlns:sketch="http://www.bohemiancoding.com/sketch/ns">
    <!-- Generator: Sketch 3.3.3 (12081) - http://www.bohemiancoding.com/sketch -->
    <title>perfil new</title>
    <desc>Created with Sketch.</desc>
    <defs></defs>
    <g id="Page-1" stroke="none" stroke-width="1" fill="none" fill-rule="evenodd" sketch:type="MSPage">
        <g id="Mochila-vinculado" sketch:type="MSArtboardGroup" transform="translate(-38.000000, -28.000000)" stroke="#210049" stroke-width="2" stroke-linecap="round" stroke-linejoin="round">
            <g id="Rectangle-318-Copy-9-+-Group-Copy-3" sketch:type="MSLayerGroup" transform="translate(-136.000000, -276.000000)">
                <g id="perfil-new" sketch:type="MSShapeGroup">
                    <g transform="translate(174.000000, 304.000000)">
                        <path d="M1,24 C1,25.657 2.343,27 4,27 C5.657,27 7,25.657 7,24 C7,22.343 5.657,21 4,21 C2.343,21 1,22.343 1,24 L1,24 Z" id="Path" transform="translate(4.000000, 24.000000) rotate(-270.000000) translate(-4.000000, -24.000000) "></path>
                        <path d="M4,21 L4,1" id="Path-1387"></path>
                        <path d="M11,14 C11,15.657 12.343,17 14,17 C15.657,17 17,15.657 17,14 C17,12.343 15.657,11 14,11 C12.343,11 11,12.343 11,14 L11,14 Z" id="Path-Copy-11" transform="translate(14.000000, 14.000000) rotate(-270.000000) translate(-14.000000, -14.000000) "></path>
                        <path d="M14,11 L14,1" id="Path-1387-Copy"></path>
                        <path d="M14,27 L14,17" id="Path-1387-Copy-3"></path>
                        <path d="M21,4 C21,5.657 22.343,7 24,7 C25.657,7 27,5.657 27,4 C27,2.343 25.657,1 24,1 C22.343,1 21,2.343 21,4 L21,4 Z" id="Path-Copy-12" transform="translate(24.000000, 4.000000) rotate(-270.000000) translate(-24.000000, -4.000000) "></path>
                        <path d="M24,27 L24,7" id="Path-1387-Copy-2"></path>
                    </g>
                </g>
            </g>
        </g>
    </g>
</svg>